<mxfile host="app.diagrams.net" modified="2024-04-29T08:40:21.927Z" agent="Mozilla/5.0 (Windows NT 10.0; Win64; x64) AppleWebKit/537.36 (KHTML, like Gecko) Chrome/124.0.0.0 Safari/537.36" etag="Ur7lwQvYG261rld3hoFh" version="24.3.1" type="github">
  <diagram id="C5RBs43oDa-KdzZeNtuy" name="Page-1">
    <mxGraphModel dx="1877" dy="653" grid="1" gridSize="10" guides="1" tooltips="1" connect="1" arrows="1" fold="1" page="1" pageScale="1" pageWidth="827" pageHeight="1169" math="0" shadow="0">
      <root>
        <mxCell id="WIyWlLk6GJQsqaUBKTNV-0" />
        <mxCell id="WIyWlLk6GJQsqaUBKTNV-1" parent="WIyWlLk6GJQsqaUBKTNV-0" />
        <mxCell id="TAMpFohP5WpvRMckGVKH-1" value="NestJs&amp;nbsp;&lt;div&gt;server&lt;/div&gt;&lt;div&gt;(Carla Adapter)&lt;/div&gt;" style="whiteSpace=wrap;html=1;aspect=fixed;" vertex="1" parent="WIyWlLk6GJQsqaUBKTNV-1">
          <mxGeometry x="190" y="230" width="100" height="100" as="geometry" />
        </mxCell>
        <mxCell id="TAMpFohP5WpvRMckGVKH-5" value="SP" style="whiteSpace=wrap;html=1;aspect=fixed;" vertex="1" parent="WIyWlLk6GJQsqaUBKTNV-1">
          <mxGeometry x="-20" y="230" width="80" height="80" as="geometry" />
        </mxCell>
        <mxCell id="TAMpFohP5WpvRMckGVKH-9" value="" style="endArrow=classic;html=1;rounded=0;exitX=1.032;exitY=0.628;exitDx=0;exitDy=0;exitPerimeter=0;" edge="1" parent="WIyWlLk6GJQsqaUBKTNV-1" source="TAMpFohP5WpvRMckGVKH-5">
          <mxGeometry relative="1" as="geometry">
            <mxPoint x="90" y="279.5" as="sourcePoint" />
            <mxPoint x="190" y="279.5" as="targetPoint" />
          </mxGeometry>
        </mxCell>
        <mxCell id="TAMpFohP5WpvRMckGVKH-12" value="request" style="edgeLabel;html=1;align=center;verticalAlign=middle;resizable=0;points=[];" vertex="1" connectable="0" parent="TAMpFohP5WpvRMckGVKH-9">
          <mxGeometry x="-0.024" y="1" relative="1" as="geometry">
            <mxPoint y="1" as="offset" />
          </mxGeometry>
        </mxCell>
        <mxCell id="TAMpFohP5WpvRMckGVKH-13" value="MongoDB/&lt;div&gt;AWS DB&lt;/div&gt;" style="shape=dataStorage;whiteSpace=wrap;html=1;fixedSize=1;" vertex="1" parent="WIyWlLk6GJQsqaUBKTNV-1">
          <mxGeometry x="190" y="470" width="120" height="100" as="geometry" />
        </mxCell>
        <mxCell id="TAMpFohP5WpvRMckGVKH-14" value="" style="endArrow=classic;html=1;rounded=0;entryX=0.75;entryY=0;entryDx=0;entryDy=0;exitX=0.616;exitY=1.094;exitDx=0;exitDy=0;exitPerimeter=0;" edge="1" parent="WIyWlLk6GJQsqaUBKTNV-1">
          <mxGeometry width="50" height="50" relative="1" as="geometry">
            <mxPoint x="238.2999999999999" y="330" as="sourcePoint" />
            <mxPoint x="241.7" y="470.6" as="targetPoint" />
          </mxGeometry>
        </mxCell>
        <mxCell id="TAMpFohP5WpvRMckGVKH-15" value="save simulation details&amp;nbsp;&lt;div&gt;(status, simulation_id,&lt;/div&gt;&lt;div&gt;simulation_group_id)&lt;/div&gt;&lt;div&gt;&lt;br&gt;&lt;/div&gt;" style="edgeLabel;html=1;align=center;verticalAlign=middle;resizable=0;points=[];" vertex="1" connectable="0" parent="TAMpFohP5WpvRMckGVKH-14">
          <mxGeometry x="-0.0473" y="-1" relative="1" as="geometry">
            <mxPoint as="offset" />
          </mxGeometry>
        </mxCell>
        <mxCell id="TAMpFohP5WpvRMckGVKH-18" value="" style="endArrow=classic;html=1;rounded=0;exitX=1;exitY=0.5;exitDx=0;exitDy=0;" edge="1" parent="WIyWlLk6GJQsqaUBKTNV-1" source="TAMpFohP5WpvRMckGVKH-1" target="TAMpFohP5WpvRMckGVKH-22">
          <mxGeometry width="50" height="50" relative="1" as="geometry">
            <mxPoint x="390" y="360" as="sourcePoint" />
            <mxPoint x="400" y="280" as="targetPoint" />
          </mxGeometry>
        </mxCell>
        <mxCell id="TAMpFohP5WpvRMckGVKH-19" value="" style="endArrow=classic;html=1;rounded=0;" edge="1" parent="WIyWlLk6GJQsqaUBKTNV-1" target="TAMpFohP5WpvRMckGVKH-20">
          <mxGeometry width="50" height="50" relative="1" as="geometry">
            <mxPoint x="240" y="230" as="sourcePoint" />
            <mxPoint x="240" y="160" as="targetPoint" />
          </mxGeometry>
        </mxCell>
        <mxCell id="TAMpFohP5WpvRMckGVKH-21" value="send simulation meta data and parameters" style="edgeLabel;html=1;align=center;verticalAlign=middle;resizable=0;points=[];" vertex="1" connectable="0" parent="TAMpFohP5WpvRMckGVKH-19">
          <mxGeometry x="-0.025" y="-1" relative="1" as="geometry">
            <mxPoint as="offset" />
          </mxGeometry>
        </mxCell>
        <mxCell id="TAMpFohP5WpvRMckGVKH-20" value="S3 bucket&lt;div&gt;&lt;br&gt;&lt;/div&gt;" style="shape=dataStorage;whiteSpace=wrap;html=1;fixedSize=1;" vertex="1" parent="WIyWlLk6GJQsqaUBKTNV-1">
          <mxGeometry x="190" y="70" width="100" height="80" as="geometry" />
        </mxCell>
        <mxCell id="TAMpFohP5WpvRMckGVKH-22" value="RabbitMQ/&lt;div&gt;SQS&lt;/div&gt;" style="rhombus;whiteSpace=wrap;html=1;" vertex="1" parent="WIyWlLk6GJQsqaUBKTNV-1">
          <mxGeometry x="400" y="235" width="130" height="90" as="geometry" />
        </mxCell>
        <mxCell id="TAMpFohP5WpvRMckGVKH-23" value="" style="endArrow=classic;html=1;rounded=0;entryX=1;entryY=0;entryDx=0;entryDy=0;exitX=0.294;exitY=0.911;exitDx=0;exitDy=0;exitPerimeter=0;" edge="1" parent="WIyWlLk6GJQsqaUBKTNV-1" source="TAMpFohP5WpvRMckGVKH-22" target="TAMpFohP5WpvRMckGVKH-13">
          <mxGeometry width="50" height="50" relative="1" as="geometry">
            <mxPoint x="470" y="380" as="sourcePoint" />
            <mxPoint x="440" y="310" as="targetPoint" />
          </mxGeometry>
        </mxCell>
        <mxCell id="TAMpFohP5WpvRMckGVKH-24" value="update status" style="edgeLabel;html=1;align=center;verticalAlign=middle;resizable=0;points=[];" vertex="1" connectable="0" parent="TAMpFohP5WpvRMckGVKH-23">
          <mxGeometry x="0.0044" y="3" relative="1" as="geometry">
            <mxPoint as="offset" />
          </mxGeometry>
        </mxCell>
        <mxCell id="TAMpFohP5WpvRMckGVKH-25" value="Carla Connect&lt;div&gt;(sqs deamon)&lt;/div&gt;" style="whiteSpace=wrap;html=1;aspect=fixed;" vertex="1" parent="WIyWlLk6GJQsqaUBKTNV-1">
          <mxGeometry x="670" y="225" width="110" height="110" as="geometry" />
        </mxCell>
        <mxCell id="TAMpFohP5WpvRMckGVKH-26" value="" style="endArrow=classic;html=1;rounded=0;entryX=1;entryY=0.5;entryDx=0;entryDy=0;exitX=0;exitY=0.5;exitDx=0;exitDy=0;" edge="1" parent="WIyWlLk6GJQsqaUBKTNV-1" source="TAMpFohP5WpvRMckGVKH-25" target="TAMpFohP5WpvRMckGVKH-22">
          <mxGeometry width="50" height="50" relative="1" as="geometry">
            <mxPoint x="550" y="330" as="sourcePoint" />
            <mxPoint x="600" y="280" as="targetPoint" />
          </mxGeometry>
        </mxCell>
        <mxCell id="TAMpFohP5WpvRMckGVKH-27" value="pulling from queue" style="edgeLabel;html=1;align=center;verticalAlign=middle;resizable=0;points=[];" vertex="1" connectable="0" parent="TAMpFohP5WpvRMckGVKH-26">
          <mxGeometry x="-0.0314" y="1" relative="1" as="geometry">
            <mxPoint as="offset" />
          </mxGeometry>
        </mxCell>
        <mxCell id="TAMpFohP5WpvRMckGVKH-28" value="" style="endArrow=classic;html=1;rounded=0;exitX=-0.064;exitY=0.764;exitDx=0;exitDy=0;exitPerimeter=0;entryX=0.888;entryY=0.342;entryDx=0;entryDy=0;entryPerimeter=0;" edge="1" parent="WIyWlLk6GJQsqaUBKTNV-1" source="TAMpFohP5WpvRMckGVKH-25" target="TAMpFohP5WpvRMckGVKH-13">
          <mxGeometry width="50" height="50" relative="1" as="geometry">
            <mxPoint x="560" y="380" as="sourcePoint" />
            <mxPoint x="610" y="330" as="targetPoint" />
          </mxGeometry>
        </mxCell>
        <mxCell id="TAMpFohP5WpvRMckGVKH-29" value="update running&amp;nbsp;&amp;nbsp;" style="edgeLabel;html=1;align=center;verticalAlign=middle;resizable=0;points=[];" vertex="1" connectable="0" parent="TAMpFohP5WpvRMckGVKH-28">
          <mxGeometry x="-0.0353" y="2" relative="1" as="geometry">
            <mxPoint x="73" y="-35" as="offset" />
          </mxGeometry>
        </mxCell>
        <mxCell id="TAMpFohP5WpvRMckGVKH-39" value="Running" style="edgeLabel;html=1;align=center;verticalAlign=middle;resizable=0;points=[];" vertex="1" connectable="0" parent="TAMpFohP5WpvRMckGVKH-28">
          <mxGeometry x="-0.8455" y="-4" relative="1" as="geometry">
            <mxPoint as="offset" />
          </mxGeometry>
        </mxCell>
        <mxCell id="TAMpFohP5WpvRMckGVKH-31" value="" style="endArrow=classic;html=1;rounded=0;exitX=0;exitY=0.25;exitDx=0;exitDy=0;entryX=1;entryY=0.5;entryDx=0;entryDy=0;" edge="1" parent="WIyWlLk6GJQsqaUBKTNV-1" source="TAMpFohP5WpvRMckGVKH-25" target="TAMpFohP5WpvRMckGVKH-20">
          <mxGeometry width="50" height="50" relative="1" as="geometry">
            <mxPoint x="450" y="200" as="sourcePoint" />
            <mxPoint x="500" y="150" as="targetPoint" />
          </mxGeometry>
        </mxCell>
        <mxCell id="TAMpFohP5WpvRMckGVKH-32" value="store video, trace, log files" style="edgeLabel;html=1;align=center;verticalAlign=middle;resizable=0;points=[];" vertex="1" connectable="0" parent="TAMpFohP5WpvRMckGVKH-31">
          <mxGeometry x="0.1477" y="-1" relative="1" as="geometry">
            <mxPoint as="offset" />
          </mxGeometry>
        </mxCell>
        <mxCell id="TAMpFohP5WpvRMckGVKH-33" value="AWS API" style="whiteSpace=wrap;html=1;aspect=fixed;" vertex="1" parent="WIyWlLk6GJQsqaUBKTNV-1">
          <mxGeometry x="170" y="680" width="80" height="80" as="geometry" />
        </mxCell>
        <mxCell id="TAMpFohP5WpvRMckGVKH-34" value="" style="endArrow=classic;html=1;rounded=0;exitX=1;exitY=0.5;exitDx=0;exitDy=0;" edge="1" parent="WIyWlLk6GJQsqaUBKTNV-1" source="TAMpFohP5WpvRMckGVKH-33" target="TAMpFohP5WpvRMckGVKH-35">
          <mxGeometry width="50" height="50" relative="1" as="geometry">
            <mxPoint x="270" y="720" as="sourcePoint" />
            <mxPoint x="340" y="720" as="targetPoint" />
          </mxGeometry>
        </mxCell>
        <mxCell id="TAMpFohP5WpvRMckGVKH-35" value="Lambda function" style="whiteSpace=wrap;html=1;aspect=fixed;" vertex="1" parent="WIyWlLk6GJQsqaUBKTNV-1">
          <mxGeometry x="310" y="680" width="80" height="80" as="geometry" />
        </mxCell>
        <mxCell id="TAMpFohP5WpvRMckGVKH-36" value="STATUS&lt;div&gt;&lt;ul&gt;&lt;li&gt;RTC status&lt;/li&gt;&lt;li&gt;CC status&amp;nbsp;&lt;/li&gt;&lt;/ul&gt;&lt;/div&gt;" style="whiteSpace=wrap;html=1;aspect=fixed;" vertex="1" parent="WIyWlLk6GJQsqaUBKTNV-1">
          <mxGeometry x="710" y="670" width="110" height="110" as="geometry" />
        </mxCell>
        <mxCell id="TAMpFohP5WpvRMckGVKH-41" value="" style="endArrow=classic;html=1;rounded=0;entryX=1;entryY=0.75;entryDx=0;entryDy=0;" edge="1" parent="WIyWlLk6GJQsqaUBKTNV-1" target="TAMpFohP5WpvRMckGVKH-13">
          <mxGeometry width="50" height="50" relative="1" as="geometry">
            <mxPoint x="720" y="340" as="sourcePoint" />
            <mxPoint x="730" y="520" as="targetPoint" />
          </mxGeometry>
        </mxCell>
        <mxCell id="TAMpFohP5WpvRMckGVKH-42" value="completed" style="edgeLabel;html=1;align=center;verticalAlign=middle;resizable=0;points=[];" vertex="1" connectable="0" parent="TAMpFohP5WpvRMckGVKH-41">
          <mxGeometry x="-0.8322" y="1" relative="1" as="geometry">
            <mxPoint as="offset" />
          </mxGeometry>
        </mxCell>
        <mxCell id="TAMpFohP5WpvRMckGVKH-43" value="update completed&lt;div&gt;save video, trace and log files URL&lt;/div&gt;" style="edgeLabel;html=1;align=center;verticalAlign=middle;resizable=0;points=[];" vertex="1" connectable="0" parent="TAMpFohP5WpvRMckGVKH-41">
          <mxGeometry x="0.0302" relative="1" as="geometry">
            <mxPoint x="21" as="offset" />
          </mxGeometry>
        </mxCell>
      </root>
    </mxGraphModel>
  </diagram>
</mxfile>
